<svg width="20" height="14" viewBox="0 0 20 14" fill="none" xmlns="http://www.w3.org/2000/svg">
<g clip-path="url(#clip0_1135_81)">
<path fill-rule="evenodd" clip-rule="evenodd" d="M10 7.53977L1.81364 1.4H18.1864L10 7.53977ZM1.33333 11.1436V2.76023L6.60587 6.71463L1.33333 11.1436ZM1.73385 12.6H18.2661L12.2665 7.56033L10.3875 8.96961L10 9.26023L9.61251 8.96961L7.73346 7.56033L1.73385 12.6ZM13.3941 6.71463L18.6667 11.1436V2.76023L13.3941 6.71463ZM1.33333 0C0.596954 0 0 0.626802 0 1.4V12.6C0 13.3732 0.596954 14 1.33333 14H18.6667C19.403 14 20 13.3732 20 12.6V1.4C20 0.626801 19.403 0 18.6667 0L1.33333 0Z" fill="#BAFF28"/>
</g>
<defs>
<clipPath id="clip0_1135_81">
<rect width="20" height="14" fill="white"/>
</clipPath>
</defs>
</svg>
