<svg width="25" height="24" viewBox="0 0 25 24" fill="none" xmlns="http://www.w3.org/2000/svg">
<path d="M0.5 5.33333C0.5 2.38782 2.88781 0 5.83333 0H19.1667C22.1122 0 24.5 2.38781 24.5 5.33333V18.6667C24.5 21.6122 22.1122 24 19.1667 24H5.83333C2.88782 24 0.5 21.6122 0.5 18.6667V5.33333Z" fill="#BAFF28"/>
<path d="M18.6366 15.3008C18.6366 15.151 18.5892 15.0186 18.4943 14.9038C18.4044 14.7889 18.2395 14.684 17.9998 14.5891C17.765 14.4942 17.4329 14.3993 17.0034 14.3044C16.5988 14.2195 16.2217 14.1096 15.8721 13.9748C15.5225 13.8349 15.2178 13.6676 14.9581 13.4728C14.6983 13.273 14.4961 13.0383 14.3512 12.7686C14.2064 12.4939 14.134 12.1817 14.134 11.8321C14.134 11.4924 14.2064 11.1703 14.3512 10.8656C14.5011 10.5609 14.7158 10.2912 14.9955 10.0565C15.2802 9.82174 15.6248 9.63694 16.0294 9.50209C16.439 9.36723 16.9035 9.2998 17.4229 9.2998C18.1371 9.2998 18.754 9.41218 19.2734 9.63694C19.7929 9.8567 20.1924 10.1664 20.4721 10.5659C20.7518 10.9605 20.8917 11.4125 20.8917 11.922H18.5542C18.5542 11.7122 18.5142 11.5299 18.4343 11.3751C18.3544 11.2202 18.232 11.1004 18.0672 11.0155C17.9024 10.9256 17.6851 10.8806 17.4154 10.8806C17.2056 10.8806 17.0208 10.9181 16.861 10.993C16.7062 11.0629 16.5838 11.1603 16.4939 11.2852C16.409 11.41 16.3665 11.5549 16.3665 11.7197C16.3665 11.8346 16.3915 11.9395 16.4415 12.0344C16.4964 12.1243 16.5788 12.2092 16.6887 12.2891C16.8036 12.364 16.9509 12.4314 17.1307 12.4914C17.3155 12.5513 17.5403 12.6087 17.805 12.6637C18.3694 12.7686 18.8838 12.9159 19.3483 13.1057C19.8178 13.2955 20.1924 13.5577 20.4721 13.8924C20.7568 14.227 20.8992 14.669 20.8992 15.2184C20.8992 15.578 20.8168 15.9077 20.6519 16.2074C20.4921 16.507 20.2599 16.7693 19.9552 16.994C19.6505 17.2188 19.2859 17.3936 18.8614 17.5185C18.4368 17.6433 17.9573 17.7058 17.4229 17.7058C16.6587 17.7058 16.0119 17.5684 15.4825 17.2937C14.9531 17.019 14.5535 16.6744 14.2838 16.2598C14.0191 15.8403 13.8867 15.4107 13.8867 14.9712H16.0819C16.0918 15.2409 16.1593 15.4607 16.2841 15.6305C16.414 15.8003 16.5813 15.9252 16.7861 16.0051C16.9909 16.08 17.2206 16.1175 17.4754 16.1175C17.7301 16.1175 17.9424 16.0825 18.1122 16.0126C18.282 15.9427 18.4118 15.8478 18.5017 15.7279C18.5917 15.603 18.6366 15.4607 18.6366 15.3008Z" fill="black"/>
<path d="M9.25349 13.7648H6.51145V11.8693H9.25349C9.65806 11.8693 9.98271 11.8019 10.2274 11.6671C10.4772 11.5322 10.6595 11.3474 10.7744 11.1127C10.8942 10.8729 10.9542 10.6032 10.9542 10.3035C10.9542 9.99386 10.8942 9.70667 10.7744 9.44195C10.6595 9.17224 10.4772 8.95498 10.2274 8.79015C9.98271 8.62533 9.65806 8.54292 9.25349 8.54292H7.39549V17.5557H4.95312V6.64746H9.25349C10.1226 6.64746 10.8668 6.80479 11.4861 7.11945C12.1104 7.43411 12.5874 7.86615 12.917 8.41556C13.2517 8.95997 13.419 9.5843 13.419 10.2885C13.419 10.9928 13.2517 11.6046 12.917 12.1241C12.5874 12.6435 12.1104 13.0481 11.4861 13.3378C10.8668 13.6225 10.1226 13.7648 9.25349 13.7648Z" fill="black"/>
</svg>
