<svg width="25" height="24" viewBox="0 0 25 24" fill="none" xmlns="http://www.w3.org/2000/svg">
<rect x="0.5" width="24" height="24" rx="5.33333" fill="#BAFF28"/>
<circle cx="15.6114" cy="12.4444" r="2.963" fill="black"/>
<path d="M12.6486 18.3683C12.6486 20.0047 11.3221 21.3313 9.68565 21.3313C8.04923 21.3313 6.72266 20.0047 6.72266 18.3683C6.72266 16.7319 8.04923 15.4053 9.68565 15.4053C10.6158 15.4053 12.6486 15.4077 12.6486 15.4077C12.6486 15.4077 12.6486 17.662 12.6486 18.3683Z" fill="black"/>
<path d="M18.5744 6.51866C18.5744 8.15508 17.2478 9.48165 15.6114 9.48165L12.6484 9.48069V3.55566C12.6484 3.55566 13.975 3.55566 15.6114 3.55566C17.2478 3.55566 18.5744 4.88224 18.5744 6.51866Z" fill="black"/>
<path d="M6.72245 6.51845C6.72245 4.88203 8.04903 3.55545 9.68544 3.55545L12.6484 3.55642L12.6484 9.48145C12.6484 9.48145 11.3219 9.48145 9.68544 9.48145C8.04903 9.48144 6.72245 8.15487 6.72245 6.51845Z" fill="black"/>
<path d="M6.72245 12.4442C6.72245 10.8078 8.04903 9.48124 9.68544 9.48124L12.6484 9.4822L12.6484 15.4072C12.6484 15.4072 11.3219 15.4072 9.68544 15.4072C8.04903 15.4072 6.72245 14.0806 6.72245 12.4442Z" fill="black"/>
</svg>
